<svg id="ey288p65bil1" xmlns="http://www.w3.org/2000/svg" xmlns:xlink="http://www.w3.org/1999/xlink" viewBox="0 0 473.096191 447.366699" shape-rendering="geometricPrecision" text-rendering="geometricPrecision"><style><![CDATA[#ey288p65bil2_to {animation: ey288p65bil2_to__to 3000ms linear 1 normal forwards}@keyframes ey288p65bil2_to__to { 0% {transform: translate(236.700706px,306.698967px)} 50% {transform: translate(236.700706px,306.698967px)} 100% {transform: translate(236.700706px,226.698967px)} }#ey288p65bil37_to {animation: ey288p65bil37_to__to 3000ms linear 1 normal forwards}@keyframes ey288p65bil37_to__to { 0% {transform: translate(236.755718px,312.873749px)} 100% {transform: translate(236.755718px,72.873749px)} }#ey288p65bil37 {animation: ey288p65bil37_c_o 3000ms linear 1 normal forwards}@keyframes ey288p65bil37_c_o { 0% {opacity: 0} 100% {opacity: 1} }]]></style><g id="ey288p65bil2_to" transform="translate(236.700706,306.698967)"><g id="ey288p65bil2" transform="translate(-236.700706,-306.698967)"><g id="ey288p65bil3"><path id="ey288p65bil4" d="M379.997131,232.182938C379.997131,232.182938,382.509155,253.021011,365.553162,253.021011C365.553162,253.021011,364.297119,271.746918,351.109131,271.746918C351.109131,271.746918,347.969177,284.306915,329.129150,284.306915L321.593140,284.306915L285.787964,221.320633C285.787964,221.320633,301.411194,206.999222,338.246826,203.133438C343.377869,202.399979,349.083740,202.081070,354.955994,202.198135C355.647888,202.190750,356.324280,202.173599,357.027649,202.173599L356.991394,202.257584C376.480896,202.977127,397.272644,208.483109,404.698913,219.622940C404.698914,219.622940,397.581116,232.182938,379.997131,232.182938ZM135.154587,203.133438C130.023544,202.399979,124.317680,202.081070,118.445427,202.198135C117.753532,202.190750,117.077141,202.173599,116.373772,202.173599L116.410027,202.257584C96.920524,202.977127,76.128777,208.483109,68.702507,219.622940C68.702507,219.622940,75.820305,232.182938,93.404289,232.182938C93.404289,232.182938,90.892265,253.021011,107.848259,253.021011C107.848259,253.021011,109.104301,271.746918,122.292290,271.746918C122.292290,271.746918,125.432243,284.306915,144.272263,284.306915L151.808273,284.306915L187.613449,221.320633C187.613449,221.320633,171.990219,206.999222,135.154587,203.133438Z" fill="rgb(231,171,163)" stroke="none" stroke-width="1"/><g id="ey288p65bil5"><path id="ey288p65bil6" d="M338.246826,229.607559C343.377869,228.874100,349.083740,228.555191,354.955994,228.672257C355.647888,228.664871,356.324280,228.647720,357.027649,228.647720L356.991394,228.731705C365.078552,229.030289,373.387085,230.156021,380.874695,232.163406C397.812805,231.751907,404.698914,219.622940,404.698914,219.622940C397.272644,208.483109,376.480896,202.977127,356.991394,202.257584L357.027649,202.173599C356.324280,202.173599,355.647888,202.190750,354.955994,202.198136C349.083740,202.081070,343.377869,202.399979,338.246826,203.133438C301.411194,206.999222,285.787964,221.320633,285.787964,221.320633L296.865112,240.806900C305.312500,236.587662,318.829407,231.645340,338.246826,229.607559Z" fill="rgb(204,149,143)" stroke="none" stroke-width="1"/><path id="ey288p65bil7" d="M118.445427,202.198135C117.753532,202.190750,117.077141,202.173599,116.373772,202.173599L116.410027,202.257584C96.920524,202.977127,76.128777,208.483109,68.702507,219.622940C68.702507,219.622940,75.588615,231.751907,92.526726,232.163406C100.014336,230.156021,108.322868,229.030289,116.410027,228.731705L116.373772,228.647720C117.077141,228.647720,117.753532,228.664871,118.445427,228.672256C124.317680,228.555191,130.023544,228.874100,135.154587,229.607559C154.572006,231.645340,168.088913,236.587662,176.536301,240.806900L187.613449,221.320633C187.613449,221.320633,171.990219,206.999222,135.154587,203.133438C130.023544,202.399979,124.317680,202.081070,118.445427,202.198135Z" fill="rgb(204,149,143)" stroke="none" stroke-width="1"/></g><circle id="ey288p65bil8" r="67.385200" transform="matrix(1 0 0 1 236.35599999999999 343.83900000000000)" fill="rgb(136,77,51)" stroke="none" stroke-width="1"/><path id="ey288p65bil9" d="M236.517273,411.224335C230.639755,411.224335,226.030701,405.042175,220.913986,402.915283C215.616302,400.713165,208.005402,401.735230,204.008621,397.738403C200.011917,393.741669,201.034027,386.130859,198.831955,380.833221C196.705078,375.716553,190.522934,371.107513,190.522934,365.230011C190.522934,359.352447,196.705093,354.743408,198.831970,349.626709C201.034103,344.329010,200.012054,336.718109,204.008850,332.721344C208.005600,328.724640,215.616440,329.746765,220.914047,327.544678C226.030762,325.417816,230.639786,319.235657,236.517273,319.235657C242.394791,319.235657,247.003845,325.417816,252.120575,327.544708C257.418243,329.746826,265.029144,328.724792,269.025940,332.721588C273.022644,336.718323,272.000519,344.329132,274.202606,349.626770C276.329468,354.743469,282.511597,359.352478,282.511597,365.230011C282.511597,371.107544,276.329468,375.716583,274.202576,380.833282C272.000458,386.130982,273.022492,393.741882,269.025696,397.738648C265.028931,401.735352,257.418121,400.713226,252.120499,402.915314C247.003799,405.042206,242.394760,411.224335,236.517273,411.224335Z" fill="rgb(247,235,244)" stroke="none" stroke-width="1"/><path id="ey288p65bil10" d="M236.356247,276.453888C207.345932,276.453888,182.621200,294.787933,173.126938,320.499847C180.863205,325.113129,189.673508,328.122711,199.119431,329.013214C209.655563,337.658234,222.908493,342.400421,236.627243,342.400421C250.345993,342.400421,263.597961,337.658234,274.134094,329.013214C283.400024,328.139862,292.055542,325.229279,299.684692,320.764862C290.263184,294.913544,265.466431,276.453888,236.356247,276.453888Z" fill="rgb(136,77,51)" stroke="none" stroke-width="1"/><g id="ey288p65bil11"><path id="ey288p65bil12" d="M175.940597,214.040848C155.039963,221.842300,142.440720,240.826981,142.440720,266.714386C142.440720,272.822296,143.336044,278.722015,144.974899,284.306915L151.808273,284.306915L187.613449,221.320633C187.613449,221.320633,183.926071,217.951004,175.940597,214.040848Z" fill="rgb(204,149,143)" stroke="none" stroke-width="1"/><path id="ey288p65bil13" d="M297.399597,214.070877C289.456604,217.968277,285.787964,221.320633,285.787964,221.320633L321.593140,284.306915L328.279602,284.306915C329.918457,278.722015,330.813782,272.822296,330.813782,266.714386C330.813782,240.861893,318.249634,221.891983,297.399597,214.070877Z" fill="rgb(204,149,143)" stroke="none" stroke-width="1"/></g><path id="ey288p65bil14" d="M274.221008,215.121597C262.560425,215.121597,245.837738,221.595779,236.627243,221.595779C225.066437,221.595779,210.694076,215.121597,199.033493,215.121597C167.276657,215.121597,147.440720,234.957535,147.440720,266.714386C147.440720,298.471237,173.276657,324.307159,205.033493,324.307159C216.694076,324.307159,227.549118,320.813690,236.627243,314.832977C245.705368,320.813690,256.560425,324.307159,268.221008,324.307159C299.977844,324.307159,325.813782,298.471222,325.813782,266.714386C325.813782,234.957550,305.977844,215.121597,274.221008,215.121597Z" fill="rgb(136,77,51)" stroke="none" stroke-width="1"/><path id="ey288p65bil15" d="M236.627243,337.400421C214.646774,337.400421,195.009079,324.275421,186.597946,303.962921C183.763962,297.118195,184.944626,289.267609,189.668259,283.560577C201.292282,269.513214,218.408493,261.456573,236.627243,261.456573C254.845993,261.456573,271.961243,269.513214,283.585266,283.560577C288.308899,289.267609,289.489563,297.118195,286.655579,303.962921C278.244446,324.275421,258.606750,337.400421,236.627243,337.400421Z" fill="rgb(136,77,51)" stroke="none" stroke-width="1"/><g id="ey288p65bil16"><path id="ey288p65bil17" d="M202.033493,316.307159C195.722244,316.307159,190.851547,309.275604,185.357254,306.991791C179.668625,304.627167,171.273086,306.057953,166.981384,301.766235C162.689758,297.474579,164.120636,289.079101,161.756073,283.390533C159.472259,277.896271,152.440720,273.025604,152.440720,266.714386C152.440720,260.403107,159.472275,255.532425,161.756103,250.038132C164.120712,244.349502,162.689911,235.953964,166.981644,231.662262C171.273315,227.370621,179.668777,228.801513,185.357330,226.436950C190.851593,224.153137,195.722275,217.121597,202.033493,217.121597C208.344757,217.121597,213.215454,224.153152,218.709747,226.436981C224.398376,228.801590,232.793915,227.370788,237.085602,231.662521C241.377243,235.954193,239.946365,244.349655,242.310928,250.038208C244.594742,255.532470,251.626266,260.403137,251.626266,266.714386C251.626266,273.025635,244.594726,277.896332,242.310898,283.390625C239.946289,289.079254,241.377090,297.474792,237.085357,301.766479C232.793686,306.058136,224.398224,304.627228,218.709671,306.991821C213.215408,309.275604,208.344727,316.307159,202.033493,316.307159Z" fill="rgb(247,235,244)" stroke="none" stroke-width="1"/></g><g id="ey288p65bil18"><path id="ey288p65bil19" d="M265.229401,308.417877C265.229401,312.076477,261.386841,314.944855,260.067535,318.126282C258.699982,321.424194,259.337402,326.157043,256.852051,328.642365C254.366760,331.127594,249.634018,330.490021,246.336227,331.857544C243.154816,333.176819,240.286468,337.019348,236.627914,337.019348C232.969330,337.019348,230.100952,333.176788,226.919510,331.857513C223.621613,330.489929,218.888763,331.127380,216.403442,328.641998C213.918198,326.156708,214.555771,321.423981,213.188248,318.126190C211.868988,314.944763,208.026443,312.076416,208.026443,308.417877C208.026443,304.759277,211.869003,301.890900,213.188293,298.709473C214.555878,295.411560,213.918427,290.678711,216.403809,288.193390C218.889084,285.708160,223.621826,286.345734,226.919617,284.978211C230.101028,283.658966,232.969376,279.816406,236.627914,279.816406C240.286514,279.816406,243.154892,283.658966,246.336319,284.978241C249.634231,286.345825,254.367081,285.708374,256.852417,288.193756C259.337646,290.679047,258.700073,295.411774,260.067596,298.709595C261.386841,301.890991,265.229401,304.759338,265.229401,308.417877Z" fill="rgb(247,235,244)" stroke="none" stroke-width="1"/></g><path id="ey288p65bil20" d="M264.762909,292.676514C264.342499,292.278198,263.919647,291.882568,263.482574,291.502197C263.428253,291.455444,263.371552,291.411560,263.317047,291.365112C256.550446,285.538391,247.859100,281.894775,238.324738,281.505005C238.293182,281.503601,238.262482,281.499084,238.230927,281.497742C237.954620,281.487183,237.677033,281.481873,237.399384,281.476685C237.315887,281.474731,237.232086,281.473816,237.148651,281.471619C236.974091,281.469421,236.802094,281.456787,236.626984,281.456787C236.597748,281.456787,236.569122,281.459229,236.539886,281.459290C236.531280,281.459229,236.522858,281.458740,236.514252,281.458740C236.217926,281.459412,235.923920,281.469788,235.629120,281.476685C235.351471,281.481873,235.073883,281.487183,234.797577,281.497742C234.722076,281.500977,234.648529,281.511475,234.573090,281.515137C233.834747,281.551636,233.102508,281.610107,232.374969,281.685242C231.952240,281.728149,231.534027,281.784363,231.115143,281.839905C230.588287,281.910889,230.060882,281.980042,229.540619,282.070862C228.949860,282.172302,228.367950,282.297424,227.785980,282.423645C227.607941,282.462830,227.428619,282.498108,227.251434,282.539673C215.169037,285.327515,205.100433,293.372070,199.606171,304.154175C199.848968,304.157227,200.091095,304.163208,200.333221,304.168884C200.610870,304.174072,200.888458,304.179382,201.164764,304.189941C204.565948,304.336243,207.860382,304.892029,211.000458,305.809204L211.028107,305.809265C217.282623,312.907104,226.422516,317.400391,236.626984,317.400391C246.754242,317.400391,255.833527,312.975342,262.084198,305.970642L262.108978,305.970703C265.410187,304.957214,268.887115,304.344665,272.483307,304.189941C272.759613,304.179382,273.037201,304.174072,273.314850,304.168884C273.352692,304.168030,273.390595,304.167541,273.428375,304.166565C271.225067,299.839172,268.272797,295.963562,264.762909,292.676514Z" fill="rgb(204,149,143)" stroke="none" stroke-width="1"/><path id="ey288p65bil21" d="M236.626984,281.456787C223.930267,281.456787,212.584625,287.238220,205.076385,296.311218C210.202423,308.689819,222.395355,317.400391,236.626984,317.400391C250.858551,317.400391,263.051483,308.689819,268.177521,296.311218C260.669342,287.238220,249.323700,281.456787,236.626984,281.456787Z" fill="rgb(231,171,163)" stroke="none" stroke-width="1"/><path id="ey288p65bil22" d="M265.013580,293.116852C261.498840,296.631592,258.296295,298.858917,253.518036,298.858917C248.088181,298.858917,244.602432,294.732239,236.517273,294.732239C228.432114,294.732239,224.946365,298.858917,219.516510,298.858917C214.738251,298.858917,211.535721,296.631592,208.020950,293.116852" fill="none" stroke="rgb(204,149,143)" stroke-width="1" stroke-miterlimit="10"/><path id="ey288p65bil23" d="M236.626984,281.456787C240.805817,281.456787,244.833282,282.094360,248.630768,283.258118C247.605316,277.671692,242.720551,273.435364,236.837738,273.435364C231.004364,273.435364,226.147552,277.599182,225.066437,283.115967C228.732880,282.038269,232.611664,281.456787,236.626984,281.456787Z" fill="rgb(204,149,143)" stroke="none" stroke-width="1"/><g id="ey288p65bil24"><path id="ey288p65bil25" d="M231.508881,278.660523C229.481354,278.660523,227.837799,280.304138,227.837799,282.331604C227.837799,282.356567,227.844635,282.379700,227.845123,282.404541C230.186188,281.891846,232.608612,281.605225,235.080780,281.512573C234.707550,279.880737,233.253815,278.660523,231.508881,278.660523Z" fill="rgb(21,23,33)" stroke="none" stroke-width="1"/><path id="ey288p65bil26" d="M245.820221,282.505432C245.823029,282.446594,245.837738,282.391174,245.837738,282.331604C245.837738,280.304138,244.194122,278.660523,242.166656,278.660523C240.422699,278.660523,238.969818,279.879395,238.595551,281.509766C241.067780,281.628784,243.482330,281.965820,245.820221,282.505432Z" fill="rgb(21,23,33)" stroke="none" stroke-width="1"/></g><circle id="ey288p65bil27" r="17.592700" transform="matrix(1 0 0 1 202.03299999999999 266.71400000000000)" fill="rgb(231,171,163)" stroke="none" stroke-width="1"/><path id="ey288p65bil28" d="M185.479675,260.816437C185.479675,260.816437,188.965698,274.391358,198.107971,277.681213C207.250244,280.971100,218.586777,272.730103,218.586777,272.730103C218.586777,272.730103,214.423569,261.037018,205.281296,257.747162C196.139008,254.457306,185.479675,260.816437,185.479675,260.816437Z" fill="rgb(247,235,244)" stroke="none" stroke-width="1"/><path id="ey288p65bil29" d="M214.115631,267.068115C214.115631,266.104187,213.990753,265.171387,213.777496,264.272705C211.675385,261.613525,208.861908,259.035706,205.281281,257.747192C201.843292,256.510010,198.191070,256.637634,194.971588,257.278198C191.934601,259.472839,189.950836,263.034851,189.950836,267.068115C189.950836,268.988342,190.410614,270.797058,191.207733,272.409241C193.013947,274.677185,195.291656,276.667786,198.107941,277.681213C201.137360,278.771362,204.406097,278.591858,207.425018,277.869202C211.388031,275.886719,214.115631,271.800842,214.115631,267.068115Z" fill="rgb(87,60,50)" stroke="none" stroke-width="1"/><circle id="ey288p65bil30" r="6.367240" transform="matrix(1 0 0 1 202.03299999999999 267.06799999999998)" fill="rgb(21,23,33)" stroke="none" stroke-width="1"/><circle id="ey288p65bil31" r="17.592700" transform="matrix(1 0 0 1 271.22100000000000 266.71400000000000)" fill="rgb(231,171,163)" stroke="none" stroke-width="1"/><path id="ey288p65bil32" d="M287.774262,260.816437C287.774262,260.816437,284.288239,274.391358,275.145966,277.681213C266.003693,280.971100,254.667160,272.730103,254.667160,272.730103C254.667160,272.730103,258.830383,261.037018,267.972656,257.747162C277.114929,254.457306,287.774262,260.816437,287.774262,260.816437Z" fill="rgb(247,235,244)" stroke="none" stroke-width="1"/><path id="ey288p65bil33" d="M259.138306,267.068115C259.138306,266.104187,259.263184,265.171387,259.476440,264.272705C261.578552,261.613525,264.392029,259.035706,267.972656,257.747192C271.410645,256.510010,275.062866,256.637634,278.282349,257.278198C281.319336,259.472839,283.303101,263.034851,283.303101,267.068115C283.303101,268.988342,282.843323,270.797058,282.046204,272.409241C280.239990,274.677185,277.962280,276.667786,275.145996,277.681213C272.116577,278.771362,268.847840,278.591858,265.828919,277.869202C261.865906,275.886719,259.138306,271.800842,259.138306,267.068115Z" fill="rgb(87,60,50)" stroke="none" stroke-width="1"/><circle id="ey288p65bil34" r="6.367250" transform="matrix(1 0 0 1 271.22100000000000 267.06799999999998)" fill="rgb(21,23,33)" stroke="none" stroke-width="1"/><circle id="ey288p65bil35" r="2.289860" transform="matrix(1 0 0 1 197.95599999999999 263.07200000000000)" fill="rgb(247,235,244)" stroke="none" stroke-width="1"/><circle id="ey288p65bil36" r="2.289860" transform="matrix(1 0 0 1 266.50799999999998 263.07200000000000)" fill="rgb(247,235,244)" stroke="none" stroke-width="1"/></g></g></g><g id="ey288p65bil37_to" transform="translate(236.755718,312.873749)"><g id="ey288p65bil37" transform="translate(-236.755718,-312.873749)" opacity="0"><g id="ey288p65bil38"><path id="ey288p65bil39" d="M103.813583,324.192200C103.813583,333.091797,98.535004,339.060852,87.977859,342.099335C82.284325,343.759155,73.854805,344.586792,62.690403,344.586792C60.202930,344.586792,56.306412,344.062775,50.999721,343.012451C51.441666,340.524963,52.712391,337.180603,54.814152,332.979340C56.416614,332.925354,58.959190,332.677978,62.441883,332.234894C61.611973,327.480347,60.838291,321.455078,60.119713,314.159088C59.069397,303.601929,58.462147,297.576660,58.295715,296.085541C57.852650,296.528625,57.107078,296.749023,56.057888,296.749023C55.946560,296.362183,55.394409,295.035217,54.399196,292.768158C53.514187,290.779968,53.072243,289.453003,53.072243,288.789551C53.072243,287.408630,53.155460,286.468506,53.321892,285.969208C55.311195,285.197784,58.184387,284.228424,61.943710,283.067902C64.651596,282.460663,68.204010,281.797180,72.597572,281.077484C76.992256,280.360016,79.658539,280.000183,80.598648,280.000183C86.402382,280.000183,90.989364,281.216919,94.361847,283.648163C98.285354,286.522461,100.248802,290.917175,100.248802,296.832214C100.248802,299.706543,100.150963,301.447327,99.958671,302.054565C99.764122,302.664062,98.424804,304.985107,95.937324,309.019958C101.187790,312.391327,103.813583,317.449493,103.813583,324.192200ZM88.806641,296.832214C88.806641,295.228638,87.977859,293.984924,86.319168,293.101013C84.937111,292.327332,83.389748,291.940491,81.677078,291.940491C81.123810,291.940491,79.506722,292.064209,76.826950,292.313843C74.144936,292.561249,72.473869,292.684937,71.810394,292.684937C71.478661,294.841797,71.395439,297.412476,71.561874,300.397034C71.727180,305.205536,71.810394,307.499573,71.810394,307.279175C73.412857,306.559479,75.430275,305.731812,77.862648,304.791687C85.158646,302.634827,88.806641,299.980957,88.806641,296.832214ZM92.372543,323.859345C92.372543,321.650757,90.630638,319.909973,87.149071,318.636993C84.550270,317.696899,82.117897,317.226807,79.853081,317.226807C77.641113,317.226807,74.932106,317.753113,71.727180,318.803436C72.500862,322.064575,73.469086,326.652710,74.629608,332.565491L78.360817,332.565491C79.078278,332.621735,79.589935,332.511535,79.893562,332.234894C80.197189,331.958252,80.487320,331.708618,80.765076,331.488220C84.467056,330.491882,86.706009,329.830627,87.480812,329.497772C90.740845,328.060608,92.372543,326.182617,92.372543,323.859345Z" fill="rgb(142,118,167)" stroke="none" stroke-width="1"/><path id="ey288p65bil40" d="M155.299362,290.280701C155.409561,290.669769,155.465790,291.110596,155.465790,291.607636C155.465790,292.990814,154.967621,294.981262,153.972412,297.576660C152.535248,301.447327,151.788559,303.491760,151.734573,303.712158C150.904678,310.180481,146.938431,318.180420,139.836975,327.714233C132.733292,337.250305,126.335800,343.151886,120.643394,345.416717C118.763168,344.919678,116.717636,343.538727,114.507919,341.271667L114.507919,339.031586C115.171402,338.424347,117.851166,336.379944,122.550606,332.896118C125.977074,330.354675,128.214905,327.896423,129.265213,325.519165C123.793220,322.368225,118.873375,318.416595,114.507919,313.662048C109.477867,308.246277,106.299927,302.911499,104.972977,297.659912C107.404228,296.058533,110.886917,294.011902,115.419922,291.524414C116.746872,291.580628,117.712852,292.657959,118.321228,294.758606C119.261337,298.129944,120.090118,300.354279,120.808701,301.433838C121.526154,302.511139,122.881218,304.985107,124.871651,308.853516C125.203392,309.463013,125.810638,310.511108,126.695648,312.004486C128.298111,313.054810,130.702377,314.768585,133.908432,317.143616C134.460571,316.149536,135.372574,314.464966,136.644424,312.087708C136.699524,311.867310,137.860046,309.654205,140.127106,305.455200C140.844574,303.077912,141.454071,300.313782,141.951111,297.162842C142.614593,293.404663,143.083527,290.890198,143.360153,289.617188C148.720825,289.617188,152.700561,289.839844,155.299362,290.280701Z" fill="rgb(142,118,167)" stroke="none" stroke-width="1"/><path id="ey288p65bil41" d="M201.064621,293.598083C199.792770,293.598083,198.826797,294.261536,198.163315,295.588501C197.113007,297.689148,196.283096,299.016083,195.675842,299.567108C195.454315,299.567108,193.630310,299.236511,190.203842,298.572998C187.494843,298.352600,183.376785,298.240173,177.850815,298.240173C175.805283,299.400696,174.975372,302.110809,175.363342,306.366058C175.583756,306.588715,175.777176,306.892334,175.943604,307.279175C176.108902,307.666016,176.302323,307.969666,176.523865,308.190064C178.291626,308.412720,180.807220,308.549927,184.068375,308.603882C187.329529,308.660095,189.733795,308.799561,191.282272,309.019959C189.345825,311.727844,187.329529,314.935028,185.228897,318.636994C184.566544,318.967590,182.961838,319.134033,180.420380,319.134033C177.379639,319.190247,175.280121,320.490235,174.119598,323.031677C174.561539,325.186279,174.783081,328.863525,174.783081,334.058899L176.523865,335.882874C177.684387,335.606262,179.176651,335.439819,181.000641,335.383606C182.824646,335.329620,184.123474,335.219421,184.898285,335.052979C186.776261,334.555939,188.628372,334.058899,190.452377,333.559601C192.828522,332.952332,194.984253,332.648743,196.919586,332.648743C197.914795,332.648743,198.880768,332.704956,199.822006,332.815155C199.047211,333.260468,198.383728,334.333283,197.831574,336.031311C197.278305,337.729370,197.056778,338.941651,197.168106,339.663574C194.790833,341.388611,192.304489,342.418701,189.706803,342.753815C188.821793,343.032715,187.494843,343.336304,185.727066,343.671448C185.339112,343.727661,181.636002,343.896332,174.616654,344.172974C169.862107,344.382141,166.491867,344.908417,164.501450,345.747315C162.566116,343.869354,161.600144,341.022034,161.600144,337.207581C161.600144,335.936890,161.737335,334.252320,162.015091,332.151673C162.069077,331.488221,162.015091,330.548096,161.848663,329.331360C161.683350,327.896424,161.600144,326.927063,161.600144,326.430054C161.268402,326.099426,160.439621,325.932984,159.112656,325.932984C158.394089,324.054993,157.012024,321.317871,154.967621,317.723877C156.735397,316.342957,159.388168,314.325531,162.927094,311.671631C162.649338,310.623535,162.566116,309.213379,162.677445,307.443360C162.843872,304.458862,162.927094,302.884491,162.927094,302.718079L161.765442,301.557556C160.218079,301.447327,158.642609,301.667725,157.040146,302.221008C157.040146,302.387451,156.956925,300.840088,156.791626,297.576660C156.680298,295.478272,156.762375,293.764496,157.040146,292.437561C164.888275,290.559570,173.069290,289.617188,181.580902,289.617188C188.765564,289.617188,195.040482,290.336914,200.402268,291.774048C200.843094,292.547730,201.064621,293.157227,201.064621,293.598083Z" fill="rgb(142,118,167)" stroke="none" stroke-width="1"/><path id="ey288p65bil42" d="M284.054291,324.192200C284.054291,333.091797,278.775726,339.060852,268.218567,342.099335C262.526154,343.759155,254.096634,344.586792,242.932236,344.586792C240.444763,344.586792,236.548248,344.062775,231.241562,343.012451C231.683502,340.524963,232.954224,337.180603,235.055984,332.979340C236.658447,332.925354,239.201034,332.677978,242.683716,332.234894C241.853805,327.480347,241.080124,321.455078,240.361557,314.159088C239.311233,303.601929,238.703979,297.576660,238.537552,296.085541C238.094482,296.528625,237.348923,296.749023,236.299728,296.749023C236.188400,296.362183,235.636246,295.035217,234.641037,292.768158C233.756027,290.779968,233.314087,289.453003,233.314087,288.789551C233.314087,287.408630,233.397293,286.468506,233.563721,285.969208C235.553039,285.197784,238.426224,284.228424,242.185547,283.067902C244.893433,282.460663,248.444717,281.797180,252.839401,281.077484C257.234100,280.360016,259.899261,280.000183,260.839355,280.000183C266.644226,280.000183,271.230072,281.216919,274.603699,283.648163C278.526062,286.522461,280.489502,290.917175,280.489502,296.832214C280.489502,299.706543,280.392792,301.447327,280.199371,302.054565C280.005951,302.664062,278.665527,304.985107,276.178040,309.019958C281.429626,312.391327,284.054291,317.449493,284.054291,324.192200ZM269.048492,296.832214C269.048492,295.228638,268.218567,293.984924,266.561005,293.101013C265.177826,292.327332,263.630463,291.940491,261.918915,291.940491C261.365631,291.940491,259.748566,292.064209,257.067657,292.313843C254.386765,292.561249,252.715713,292.684937,252.052231,292.684937C251.719376,294.841797,251.636154,297.412476,251.802582,300.397034C251.969009,305.205536,252.052231,307.499573,252.052231,307.279175C253.653580,306.559479,255.670990,305.731812,258.104492,304.791687C265.400482,302.634827,269.048492,299.980957,269.048492,296.832214ZM272.613251,323.859345C272.613251,321.650757,270.872467,319.909973,267.390900,318.636993C264.790985,317.696899,262.359741,317.226807,260.094910,317.226807C257.881836,317.226807,255.173950,317.753113,251.969009,318.803436C252.742691,322.064575,253.709793,326.652710,254.870315,332.565491L258.601532,332.565491C259.319000,332.621735,259.831787,332.511535,260.135406,332.234894C260.439026,331.958252,260.729156,331.708618,261.005798,331.488220C264.707763,330.491882,266.947845,329.830627,267.721527,329.497772C270.982666,328.060608,272.613251,326.182617,272.613251,323.859345Z" fill="rgb(142,118,167)" stroke="none" stroke-width="1"/><path id="ey288p65bil43" d="M297.402527,339.198029C296.849274,339.198029,295.992371,339.227264,294.831848,339.281250C293.448670,339.337463,292.621002,339.364441,292.344391,339.364441C290.574341,340.084167,289.193420,341.408874,288.199341,343.343079C286.208893,341.465088,285.214813,337.043396,285.214813,330.078033C285.214813,327.093506,285.464447,322.395203,285.966003,315.983093C286.409058,310.400879,286.577759,306.809143,286.467560,305.205536C286.687958,304.985107,287.189514,304.611755,287.967682,304.085510C288.748108,303.561462,289.249664,303.188110,289.472321,302.967712C289.971619,303.131897,290.639588,303.215088,291.476227,303.215088C292.978607,303.215088,294.953308,302.938476,297.402527,302.387451C297.402527,301.888153,297.290100,308.023620,297.069672,320.791626C296.959473,328.200073,297.069672,334.335510,297.402527,339.198029ZM298.149231,293.267456C297.263092,294.207581,295.798950,295.201660,293.754547,296.251953C291.044403,295.975342,288.946014,296.638794,287.452637,298.240173C286.789154,297.522705,286.458557,296.278961,286.458557,294.508942C286.458557,292.907593,286.705963,291.056610,287.205231,288.955994C288.475983,288.236267,289.910889,287.876404,291.516724,287.876404C292.067749,287.876404,293.174286,287.959656,294.831848,288.126068C296.158814,288.292511,297.236115,288.319489,298.066010,288.209290C298.066010,287.766235,297.982788,288.596130,297.816376,290.696777C297.760132,291.857300,297.870361,292.714172,298.149231,293.267456Z" fill="rgb(142,118,167)" stroke="none" stroke-width="1"/><path id="ey288p65bil44" d="M335.043030,334.058899C334.489746,334.886536,334.296326,335.302612,334.462769,335.302612C334.350311,335.302612,334.213135,335.219421,334.046692,335.052978C333.383209,336.213501,332.692749,337.374023,331.975281,338.534546C331.199371,339.861511,330.814758,340.995026,330.814758,341.935150C330.814758,342.321991,330.868744,342.679565,330.978943,343.012451C327.663818,344.613769,324.069794,345.416717,320.201386,345.416717C318.431366,345.416717,315.143219,345.113098,310.334717,344.503601C305.859070,343.896332,302.071625,343.675934,298.976898,343.842346C298.533814,339.641083,299.860779,336.076294,302.955505,333.145752C302.955505,328.834289,302.845306,322.341217,302.624878,313.662048C302.402222,304.985107,302.292023,298.489807,302.292023,294.178345C303.288361,293.127991,304.062042,292.603973,304.615326,292.603973C305.389008,292.603973,306.466309,292.437561,307.847229,292.104675C310.004090,291.607635,311.414276,291.304016,312.075501,291.193787C312.905396,290.806946,313.402435,295.752685,313.568878,306.035461C313.735321,319.687317,313.955719,328.060608,314.232361,331.155334C314.452759,331.377991,314.659668,331.681641,314.853089,332.068481C315.046509,332.455322,315.253449,332.788147,315.476105,333.062561C319.124085,333.892456,321.942169,334.252319,323.932617,334.139862C324.429657,334.139862,325.493469,334.016174,327.124054,333.768738C328.754608,333.519104,330.068085,333.395416,331.062165,333.395416C332.555542,333.395416,333.882507,333.615845,335.043030,334.058899Z" fill="rgb(142,118,167)" stroke="none" stroke-width="1"/><path id="ey288p65bil45" d="M371.687164,334.058899C371.133911,334.886536,370.940491,335.302612,371.106903,335.302612C370.994446,335.302612,370.859528,335.219421,370.693085,335.052978C370.031860,336.213501,369.339142,337.374023,368.619446,338.534546C367.845764,339.861511,367.458923,340.995026,367.458923,341.935150C367.458923,342.321991,367.512909,342.679565,367.625336,343.012451C364.310211,344.613769,360.716186,345.416717,356.847778,345.416717C355.077759,345.416717,351.789612,345.113098,346.981110,344.503601C342.503204,343.896332,338.715759,343.675934,335.621033,343.842346C335.177978,339.641083,336.504913,336.076294,339.601898,333.145752C339.601898,328.834289,339.489441,322.341217,339.269043,313.662048C339.048614,304.985107,338.938416,298.489807,338.938416,294.178345C339.932526,293.127991,340.706207,292.603973,341.259460,292.603973C342.033142,292.603973,343.110443,292.437561,344.493622,292.104675C346.648255,291.607635,348.058411,291.304016,348.721893,291.193787C349.551788,290.806946,350.048828,295.752685,350.213013,306.035461C350.379456,319.687317,350.599854,328.060608,350.876495,331.155334C351.096924,331.377991,351.303833,331.681641,351.499481,332.068481C351.692902,332.455322,351.899841,332.788147,352.120239,333.062561C355.768250,333.892456,358.588562,334.252319,360.576752,334.139862C361.076050,334.139862,362.137604,334.016174,363.770447,333.768738C365.398773,333.519104,366.712219,333.395416,367.710816,333.395416C369.199707,333.395416,370.526642,333.615845,371.687164,334.058899Z" fill="rgb(142,118,167)" stroke="none" stroke-width="1"/><path id="ey288p65bil46" d="M422.345306,290.280701C422.455505,290.669769,422.511719,291.110596,422.511719,291.607636C422.511719,292.990814,422.014679,294.981262,421.018341,297.576660C419.581177,301.447327,418.834503,303.491760,418.780518,303.712158C417.950592,310.180481,413.985504,318.180420,406.882904,327.714233C399.780335,337.250305,393.381744,343.151886,387.689331,345.416717C385.809113,344.919678,383.764710,343.538727,381.553864,341.271667L381.553864,339.031586C382.217346,338.424347,384.898224,336.379944,389.596558,332.896118C393.021881,330.354675,395.261963,327.896423,396.312287,325.519165C390.840271,322.368225,385.919312,318.416595,381.553864,313.662048C376.522675,308.246277,373.344727,302.911499,372.020050,297.659912C374.451294,296.058533,377.932861,294.011902,382.464722,291.524414C383.791687,291.580628,384.758789,292.657959,385.368286,294.758606C386.306152,298.129944,387.136047,300.354279,387.855774,301.433838C388.573212,302.511139,389.927155,304.985107,391.917572,308.853516C392.248200,309.463013,392.857697,310.511108,393.741577,312.004486C395.342926,313.054810,397.749420,314.768585,400.954376,317.143616C401.507630,316.149536,402.418518,314.464966,403.691498,312.087708C403.745453,311.867310,404.905975,309.654205,407.173035,305.455200C407.890503,303.077912,408.500000,300.313782,408.997040,297.162842C409.660523,293.404663,410.128327,290.890198,410.407227,289.617188C415.766754,289.617188,419.747620,289.839844,422.345306,290.280701Z" fill="rgb(142,118,167)" stroke="none" stroke-width="1"/></g></g></g><g id="ey288p65bil47"><g id="ey288p65bil48"><rect id="ey288p65bil49" width="371.512000" height="116.633000" rx="0" ry="0" transform="matrix(1 0 0 1 50.99969999999999 279.73399999999998)" fill="rgb(150,98,82)" stroke="none" stroke-width="1"/><rect id="ey288p65bil50" width="185.701000" height="116.633000" rx="0" ry="0" transform="matrix(1 0 0 1 50.99969999999999 279.73399999999998)" fill="rgb(130,71,55)" stroke="none" stroke-width="1"/><path id="ey288p65bil51" d="M151.112991,279.733948C151.572830,285.806152,156.648819,290.608765,162.836746,290.608765C165.355789,290.608765,167.693191,289.813355,169.609695,288.460327C171.526199,289.813355,173.863602,290.608765,176.382645,290.608765C182.570572,290.608765,187.646561,285.806152,188.106399,279.733948L151.112991,279.733948Z" opacity="0.5" fill="rgb(130,71,55)" stroke="none" stroke-width="1"/><path id="ey288p65bil52" d="M285.295105,279.733948C285.754944,285.806152,290.830933,290.608765,297.018860,290.608765C299.537903,290.608765,301.875305,289.813355,303.791809,288.460327C305.708313,289.813355,308.045715,290.608765,310.564758,290.608765C316.752686,290.608765,321.828674,285.806152,322.288513,279.733948L285.295105,279.733948Z" opacity="0.5" fill="rgb(130,71,55)" stroke="none" stroke-width="1"/><rect id="ey288p65bil53" width="401.511000" height="14.999700" rx="0" ry="0" transform="matrix(1 0 0 1 36 396.36700000000002)" fill="rgb(150,98,82)" stroke="none" stroke-width="1"/><rect id="ey288p65bil54" width="155.701000" height="86.633800" rx="0" ry="0" transform="matrix(1 0 0 1 65.99960000000000 294.73399999999998)" fill="rgb(78,76,33)" stroke="none" stroke-width="1"/><g id="ey288p65bil55"><g id="ey288p65bil56"><polygon id="ey288p65bil57" points="157.817596,322.111267 157.817596,326.297668 160.488068,328.290649 160.488068,347.810516 157.817596,349.803467 157.817596,353.989868 163.843368,349.493072 163.843368,326.608063" fill="rgb(16,35,24)" stroke="none" stroke-width="1"/><polygon id="ey288p65bil58" points="173.259979,353.989868 173.259979,349.803467 170.589508,347.810516 170.589508,328.290649 173.259979,326.297668 173.259979,322.111267 167.234207,326.608063 167.234207,349.493072" fill="rgb(16,35,24)" stroke="none" stroke-width="1"/></g><g id="ey288p65bil59"><polygon id="ey288p65bil60" points="211.288742,328.697968 207.102356,328.697968 205.109375,331.368439 185.589508,331.368439 183.596527,328.697968 179.410141,328.697968 183.906952,334.723755 206.791931,334.723755" fill="rgb(16,35,24)" stroke="none" stroke-width="1"/><polygon id="ey288p65bil61" points="179.410141,344.140350 183.596527,344.140350 185.589508,341.469879 205.109375,341.469879 207.102356,344.140350 211.288742,344.140350 206.791931,338.114594 183.906952,338.114594" fill="rgb(16,35,24)" stroke="none" stroke-width="1"/></g><g id="ey288p65bil62"><polygon id="ey288p65bil63" points="108.290283,328.697968 104.103897,328.697968 102.110916,331.368439 82.591057,331.368439 80.598076,328.697968 76.411690,328.697968 80.908493,334.723755 103.793480,334.723755" fill="rgb(16,35,24)" stroke="none" stroke-width="1"/><polygon id="ey288p65bil64" points="76.411690,344.140350 80.598076,344.140350 82.591057,341.469879 102.110916,341.469879 104.103897,344.140350 108.290283,344.140350 103.793480,338.114594 80.908493,338.114594" fill="rgb(16,35,24)" stroke="none" stroke-width="1"/></g><g id="ey288p65bil65"><polygon id="ey288p65bil66" points="114.504463,322.111267 114.504463,326.297668 117.174942,328.290649 117.174942,347.810516 114.504463,349.803467 114.504463,353.989868 120.530235,349.493072 120.530235,326.608063" fill="rgb(16,35,24)" stroke="none" stroke-width="1"/><polygon id="ey288p65bil67" points="129.946854,353.989868 129.946854,349.803467 127.276375,347.810516 127.276375,328.290649 129.946854,326.297668 129.946854,322.111267 123.921074,326.608063 123.921074,349.493072" fill="rgb(16,35,24)" stroke="none" stroke-width="1"/></g><g id="ey288p65bil68"><polygon id="ey288p65bil69" points="136.161026,301.934448 136.161026,306.120850 138.831497,308.113800 138.831497,327.633667 136.161026,329.626648 136.161026,333.813049 142.186798,329.316254 142.186798,306.431244" fill="rgb(16,35,24)" stroke="none" stroke-width="1"/><polygon id="ey288p65bil70" points="151.603409,333.813049 151.603409,329.626648 148.932938,327.633667 148.932938,308.113800 151.603409,306.120850 151.603409,301.934448 145.577637,306.431244 145.577637,329.316254" fill="rgb(16,35,24)" stroke="none" stroke-width="1"/><polygon id="ey288p65bil71" points="136.161026,342.288086 136.161026,346.474487 138.831497,348.467468 138.831497,367.987335 136.161026,369.980286 136.161026,374.166687 142.186798,369.669891 142.186798,346.784882" fill="rgb(16,35,24)" stroke="none" stroke-width="1"/><polygon id="ey288p65bil72" points="151.603409,374.166687 151.603409,369.980286 148.932938,367.987335 148.932938,348.467468 151.603409,346.474487 151.603409,342.288086 145.577637,346.784882 145.577637,369.669891" fill="rgb(16,35,24)" stroke="none" stroke-width="1"/></g></g><rect id="ey288p65bil73" width="200.701000" height="14.999700" rx="0" ry="0" transform="matrix(1 0 0 1 236.81100000000001 396.36700000000002)" fill="rgb(130,71,55)" stroke="none" stroke-width="1"/><rect id="ey288p65bil74" width="155.701000" height="86.633800" rx="0" ry="0" transform="matrix(1 0 0 1 251.81100000000001 294.73399999999998)" fill="rgb(154,150,78)" stroke="none" stroke-width="1"/><g id="ey288p65bil75"><g id="ey288p65bil76"><polygon id="ey288p65bil77" points="315.693848,322.111267 315.693848,326.297668 313.023376,328.290649 313.023376,347.810516 315.693848,349.803467 315.693848,353.989868 309.668091,349.493072 309.668091,326.608063" fill="rgb(16,35,24)" stroke="none" stroke-width="1"/><polygon id="ey288p65bil78" points="300.251465,353.989868 300.251465,349.803467 302.921936,347.810516 302.921936,328.290649 300.251465,326.297668 300.251465,322.111267 306.277252,326.608063 306.277252,349.493072" fill="rgb(16,35,24)" stroke="none" stroke-width="1"/></g><g id="ey288p65bil79"><polygon id="ey288p65bil80" points="262.222717,328.697968 266.409088,328.697968 268.402069,331.368439 287.921936,331.368439 289.914917,328.697968 294.101318,328.697968 289.604492,334.723755 266.719513,334.723755" fill="rgb(16,35,24)" stroke="none" stroke-width="1"/><polygon id="ey288p65bil81" points="294.101318,344.140350 289.914917,344.140350 287.921936,341.469879 268.402069,341.469879 266.409088,344.140350 262.222717,344.140350 266.719513,338.114594 289.604492,338.114594" fill="rgb(16,35,24)" stroke="none" stroke-width="1"/></g><g id="ey288p65bil82"><polygon id="ey288p65bil83" points="365.221161,328.697968 369.407562,328.697968 371.400543,331.368439 390.920410,331.368439 392.913361,328.697968 397.099762,328.697968 392.602966,334.723755 369.717957,334.723755" fill="rgb(16,35,24)" stroke="none" stroke-width="1"/><polygon id="ey288p65bil84" points="397.099762,344.140350 392.913361,344.140350 390.920410,341.469879 371.400543,341.469879 369.407562,344.140350 365.221161,344.140350 369.717957,338.114594 392.602966,338.114594" fill="rgb(16,35,24)" stroke="none" stroke-width="1"/></g><g id="ey288p65bil85"><polygon id="ey288p65bil86" points="359.006988,322.111267 359.006988,326.297668 356.336517,328.290649 356.336517,347.810516 359.006988,349.803467 359.006988,353.989868 352.981201,349.493072 352.981201,326.608063" fill="rgb(16,35,24)" stroke="none" stroke-width="1"/><polygon id="ey288p65bil87" points="343.564606,353.989868 343.564606,349.803467 346.235077,347.810516 346.235077,328.290649 343.564606,326.297668 343.564606,322.111267 349.590363,326.608063 349.590363,349.493072" fill="rgb(16,35,24)" stroke="none" stroke-width="1"/></g><g id="ey288p65bil88"><polygon id="ey288p65bil89" points="337.350433,301.934448 337.350433,306.120850 334.679932,308.113800 334.679932,327.633667 337.350433,329.626648 337.350433,333.813049 331.324646,329.316254 331.324646,306.431244" fill="rgb(16,35,24)" stroke="none" stroke-width="1"/><polygon id="ey288p65bil90" points="321.908051,333.813049 321.908051,329.626648 324.578522,327.633667 324.578522,308.113800 321.908051,306.120850 321.908051,301.934448 327.933807,306.431244 327.933807,329.316254" fill="rgb(16,35,24)" stroke="none" stroke-width="1"/><polygon id="ey288p65bil91" points="337.350433,342.288086 337.350433,346.474487 334.679932,348.467468 334.679932,367.987335 337.350433,369.980286 337.350433,374.166687 331.324646,369.669891 331.324646,346.784882" fill="rgb(16,35,24)" stroke="none" stroke-width="1"/><polygon id="ey288p65bil92" points="321.908051,374.166687 321.908051,369.980286 324.578522,367.987335 324.578522,348.467468 321.908051,346.474487 321.908051,342.288086 327.933807,346.784882 327.933807,369.669891" fill="rgb(16,35,24)" stroke="none" stroke-width="1"/></g></g><path id="ey288p65bil93" d="M196.700699,279.733948L196.700699,270.925964C196.700699,267.185455,193.668427,264.153198,189.927933,264.153198C186.187439,264.153198,183.155167,267.185455,183.155167,270.925964L183.155167,279.733948L196.700699,279.733948Z" fill="rgb(231,171,163)" stroke="none" stroke-width="1"/><path id="ey288p65bil94" d="M173.105087,259.380829C172.084442,260.000916,170.891434,260.364532,169.609619,260.364532C168.327820,260.364532,167.134811,260.000916,166.114166,259.380829L164.884537,259.380829L162.836868,278.839539L176.382431,278.839539L174.334702,259.380829L173.105087,259.380829Z" fill="rgb(155,103,92)" stroke="none" stroke-width="1"/><path id="ey288p65bil95" d="M169.609619,265.293976C169.609619,261.553467,166.577347,258.521210,162.836853,258.521210C159.096359,258.521210,156.064087,261.553467,156.064087,265.293976L156.064087,278.839508C156.064087,282.580017,159.096359,285.612274,162.836853,285.612274C166.577347,285.612274,169.609619,282.580017,169.609619,278.839508L169.609619,265.293976Z" fill="rgb(231,171,163)" stroke="none" stroke-width="1"/><path id="ey288p65bil96" d="M183.155167,265.293976C183.155167,261.553467,180.122894,258.521210,176.382400,258.521210C172.641891,258.521210,169.609619,261.553467,169.609619,265.293976L169.609619,278.839508C169.609619,282.580017,172.641891,285.612274,176.382400,285.612274C180.122894,285.612274,183.155167,282.580017,183.155167,278.839508L183.155167,265.293976Z" fill="rgb(231,171,163)" stroke="none" stroke-width="1"/><path id="ey288p65bil97" d="M172.125763,283.096375L172.125763,278.836395C172.129822,278.798798,172.132401,278.760468,172.133133,278.721405C172.196167,276.439911,174.102432,274.583038,176.382416,274.583038C178.662415,274.583038,180.568680,276.439911,180.631699,278.721405C180.632446,278.760468,180.635025,278.798798,180.639069,278.837128L180.639069,283.096375L172.125763,283.096375Z" fill="rgb(244,218,210)" stroke="none" stroke-width="1"/><path id="ey288p65bil98" d="M158.579956,283.096375L158.579956,278.836395C158.584015,278.798798,158.586594,278.760468,158.587326,278.721405C158.650345,276.439911,160.556610,274.583038,162.836975,274.583038C165.116974,274.583038,167.023239,276.439911,167.086258,278.721405C167.086990,278.760468,167.089584,278.798798,167.093628,278.837128L167.093628,283.096375L158.579956,283.096375Z" fill="rgb(244,218,210)" stroke="none" stroke-width="1"/><path id="ey288p65bil99" d="M276.700714,279.733948L276.700714,270.925964C276.700714,267.185455,279.732971,264.153198,283.473480,264.153198C287.213959,264.153198,290.246246,267.185455,290.246246,270.925964L290.246246,279.733948L276.700714,279.733948Z" fill="rgb(231,171,163)" stroke="none" stroke-width="1"/><path id="ey288p65bil100" d="M300.296326,259.380829C301.316986,260.000916,302.509979,260.364532,303.791779,260.364532C305.073608,260.364532,306.266602,260.000916,307.287262,259.380829L308.516876,259.380829L310.564545,278.839539L297.018982,278.839539L299.066712,259.380829L300.296326,259.380829Z" fill="rgb(155,103,92)" stroke="none" stroke-width="1"/><path id="ey288p65bil101" d="M303.791779,265.293976C303.791779,261.553467,306.824066,258.521210,310.564545,258.521210C314.305054,258.521210,317.337311,261.553467,317.337311,265.293976L317.337311,278.839508C317.337311,282.580017,314.305054,285.612274,310.564545,285.612274C306.824066,285.612274,303.791779,282.580017,303.791779,278.839508L303.791779,265.293976Z" fill="rgb(231,171,163)" stroke="none" stroke-width="1"/><path id="ey288p65bil102" d="M290.246246,265.293976C290.246246,261.553467,293.278503,258.521210,297.019012,258.521210C300.759521,258.521210,303.791779,261.553467,303.791779,265.293976L303.791779,278.839508C303.791779,282.580017,300.759521,285.612274,297.019012,285.612274C293.278503,285.612274,290.246246,282.580017,290.246246,278.839508L290.246246,265.293976Z" fill="rgb(231,171,163)" stroke="none" stroke-width="1"/><path id="ey288p65bil103" d="M301.275635,283.096375L301.275635,278.836395C301.271606,278.798798,301.269012,278.760468,301.268280,278.721405C301.205261,276.439911,299.298981,274.583038,297.018982,274.583038C294.738983,274.583038,292.832733,276.439911,292.769714,278.721405C292.768982,278.760468,292.766388,278.798798,292.762329,278.837128L292.762329,283.096375L301.275635,283.096375Z" fill="rgb(244,218,210)" stroke="none" stroke-width="1"/><path id="ey288p65bil104" d="M314.821472,283.096375L314.821472,278.836395C314.817413,278.798798,314.814819,278.760468,314.814087,278.721405C314.751068,276.439911,312.844788,274.583038,310.564423,274.583038C308.284424,274.583038,306.378174,276.439911,306.315155,278.721405C306.314423,278.760468,306.311829,278.798798,306.307770,278.837128L306.307770,283.096375L314.821472,283.096375Z" fill="rgb(244,218,210)" stroke="none" stroke-width="1"/></g></g></svg>